<svg width="16" height="16" viewBox="0 0 16 16" fill="none" xmlns="http://www.w3.org/2000/svg">
<g clip-path="url(#clip0_102_72)">
<path d="M15.1795 3.02221H4.33847V2.42392C4.33847 2.22567 4.17779 2.06494 3.9795 2.06494H2.25642C2.05812 2.06494 1.89745 2.22567 1.89745 2.42392V3.02221H0.820522C0.622225 3.02221 0.461548 3.18293 0.461548 3.38118V13.5761C0.461548 13.7743 0.622225 13.935 0.820522 13.935H15.1795C15.3778 13.935 15.5385 13.7743 15.5385 13.5761V3.38118C15.5385 3.18293 15.3778 3.02221 15.1795 3.02221ZM2.61539 2.78289H3.62052V3.02221H2.61539V2.78289ZM14.8205 13.2171H1.1795V3.74016C1.70795 3.74016 14.1928 3.74016 14.8205 3.74016V13.2171Z" fill="black"/>
<path d="M8 11.3983C9.72868 11.3983 11.135 9.99189 11.135 8.26322C11.135 6.53454 9.72868 5.12817 8 5.12817C6.27133 5.12817 4.86496 6.53454 4.86496 8.26322C4.86496 9.99189 6.27133 11.3983 8 11.3983ZM8 5.84612C9.3328 5.84612 10.4171 6.93042 10.4171 8.26322C10.4171 9.59602 9.3328 10.6803 8 10.6803C6.6672 10.6803 5.58291 9.59602 5.58291 8.26322C5.58291 6.93042 6.6672 5.84612 8 5.84612Z" fill="black"/>
<path d="M8.00002 10.2017C9.0689 10.2017 9.93848 9.33206 9.93848 8.26323C9.93848 7.1944 9.0689 6.32477 8.00002 6.32477C6.93113 6.32477 6.06155 7.1944 6.06155 8.26323C6.06155 9.33206 6.93113 10.2017 8.00002 10.2017ZM8.00002 7.04272C8.67302 7.04272 9.22053 7.59022 9.22053 8.26323C9.22053 8.93623 8.67302 9.48374 8.00002 9.48374C7.32701 9.48374 6.7795 8.93623 6.7795 8.26323C6.7795 7.59022 7.32701 7.04272 8.00002 7.04272Z" fill="black"/>
<path d="M12.212 6.7077H13.7436C13.9419 6.7077 14.1026 6.54698 14.1026 6.34873V4.8171C14.1026 4.61885 13.9419 4.45813 13.7436 4.45813H12.212C12.0137 4.45813 11.853 4.61885 11.853 4.8171V6.34873C11.853 6.54698 12.0137 6.7077 12.212 6.7077ZM12.5709 5.17608H13.3846V5.98975H12.5709V5.17608Z" fill="black"/>
<path d="M2.30429 11.494H3.69232C3.89062 11.494 4.0513 11.3333 4.0513 11.135C4.0513 10.9368 3.89062 10.7761 3.69232 10.7761H2.30429C2.10599 10.7761 1.94531 10.9368 1.94531 11.135C1.94531 11.3333 2.10599 11.494 2.30429 11.494Z" fill="black"/>
<path d="M2.30429 12.4991H3.69232C3.89062 12.4991 4.0513 12.3384 4.0513 12.1402C4.0513 11.9419 3.89062 11.7812 3.69232 11.7812H2.30429C2.10599 11.7812 1.94531 11.9419 1.94531 12.1402C1.94531 12.3384 2.10599 12.4991 2.30429 12.4991Z" fill="black"/>
</g>
<defs>
<clipPath id="clip0_102_72">
<rect width="15.0769" height="15.0769" fill="white" transform="translate(0.461548 0.461548)"/>
</clipPath>
</defs>
</svg>
