<svg width="18" height="18" viewBox="0 0 18 18" fill="none" xmlns="http://www.w3.org/2000/svg">
<g clip-path="url(#clip0_102_123)">
<path d="M5.01068 13.5442C5.71821 13.5442 6.29382 12.9686 6.29382 12.261C6.29382 11.5535 5.71821 10.9779 5.01068 10.9779C4.30316 10.9779 3.72754 11.5535 3.72754 12.261C3.72754 12.9686 4.30316 13.5442 5.01068 13.5442ZM5.01068 11.5278C5.41498 11.5278 5.74391 11.8567 5.74391 12.261C5.74391 12.6653 5.41498 12.9943 5.01068 12.9943C4.60638 12.9943 4.27746 12.6653 4.27746 12.261C4.27746 11.8567 4.60635 11.5278 5.01068 11.5278Z" fill="black"/>
<path d="M12.9893 10.9779C12.2818 10.9779 11.7062 11.5535 11.7062 12.261C11.7062 12.9686 12.2818 13.5442 12.9893 13.5442C13.6968 13.5442 14.2725 12.9686 14.2725 12.261C14.2725 11.5535 13.6968 10.9779 12.9893 10.9779ZM12.9893 12.9943C12.585 12.9943 12.2561 12.6653 12.2561 12.261C12.2561 11.8567 12.585 11.5278 12.9893 11.5278C13.3936 11.5278 13.7225 11.8567 13.7225 12.261C13.7225 12.6653 13.3937 12.9943 12.9893 12.9943Z" fill="black"/>
<path d="M5.42552 4.63915H6.29729C6.44917 4.63915 6.57224 4.51604 6.57224 4.36419C6.57224 4.21234 6.44917 4.08923 6.29729 4.08923H5.42552C5.0434 4.08923 4.43453 4.35231 4.17255 4.63061L1.96965 6.97124C1.89446 7.05113 1.874 7.16804 1.91748 7.26875C1.961 7.36946 2.0602 7.43464 2.16989 7.43464H12.8116C12.9055 7.43464 12.9929 7.38673 13.0434 7.30754C13.0939 7.22839 13.1005 7.12889 13.0609 7.04376L11.9298 4.61074C11.8082 4.35242 11.3935 4.08923 11.108 4.08923H7.39712C7.24523 4.08923 7.12216 4.21234 7.12216 4.36419L7.12213 6.88472H2.80629L4.573 5.00752C4.72855 4.84225 5.19866 4.63915 5.42552 4.63915ZM7.67208 4.63915H11.1072C11.188 4.64293 11.3947 4.7741 11.4317 4.84376L12.3806 6.88472H7.67204L7.67208 4.63915Z" fill="black"/>
<path d="M17.6154 9.83194C17.6154 8.85561 16.8618 7.81011 15.9356 7.50138C15.935 7.50116 14.6496 7.07271 14.6496 7.07271C14.435 7.00118 14.1519 6.74965 14.0556 6.545L12.9249 4.14241C12.6207 3.49585 11.8226 2.98938 11.108 2.98938H5.42553C4.7422 2.98938 3.84004 3.37916 3.3717 3.8768L0.836279 6.57074C0.582987 6.83983 0.384613 7.34004 0.384613 7.70958V11.1612C0.384613 11.9193 1.00133 12.536 1.75941 12.536H2.27487C2.41326 13.9235 3.58734 15.0107 5.01067 15.0107C6.43401 15.0107 7.60808 13.9235 7.74648 12.536H9.41489C9.56678 12.536 9.68985 12.4129 9.68985 12.2611C9.68985 12.1092 9.56678 11.9861 9.41489 11.9861H7.74648C7.60808 10.5986 6.43401 9.51148 5.01067 9.51148C3.58734 9.51148 2.41326 10.5986 2.27487 11.9861H1.75941C1.30459 11.9861 0.934531 11.6161 0.934531 11.1612V7.70958C0.934531 7.47884 1.07857 7.11567 1.23669 6.94765L3.77215 4.25368C4.13659 3.86643 4.89376 3.5393 5.42553 3.5393H11.108C11.6096 3.5393 12.2138 3.9227 12.4273 4.37657L13.558 6.77916C13.7201 7.12359 14.1146 7.47407 14.4756 7.59443L15.5204 7.94268C15.5024 8.04683 15.493 8.15271 15.493 8.2595C15.493 9.18476 16.1767 9.95318 17.0655 10.0864V11.1613C17.0655 11.6161 16.7591 11.9862 16.3824 11.9862H15.7251C15.5867 10.5987 14.4127 9.51152 12.9893 9.51152C11.4732 9.51152 10.2397 10.745 10.2397 12.2611C10.2397 13.7772 11.4732 15.0107 12.9893 15.0107C14.4127 15.0107 15.5867 13.9235 15.7251 12.5361H16.3824C17.0623 12.5361 17.6154 11.9194 17.6154 11.1613V9.83194ZM5.01067 10.0614C6.22357 10.0614 7.21034 11.0482 7.21034 12.2611C7.21034 13.474 6.22357 14.4607 5.01067 14.4607C3.79777 14.4607 2.811 13.474 2.811 12.2611C2.811 11.0482 3.79777 10.0614 5.01067 10.0614ZM12.9893 14.4607C11.7764 14.4607 10.7897 13.474 10.7897 12.2611C10.7897 11.0482 11.7764 10.0614 12.9893 10.0614C14.2022 10.0614 15.189 11.0482 15.189 12.2611C15.189 13.474 14.2022 14.4607 12.9893 14.4607ZM16.0429 8.2595C16.0429 8.22398 16.0444 8.1886 16.0472 8.15344C16.5297 8.43306 16.9193 8.97355 17.0321 9.51966C16.4651 9.3809 16.0429 8.8687 16.0429 8.2595Z" fill="black"/>
</g>
<defs>
<clipPath id="clip0_102_123">
<rect width="17.2308" height="17.2308" fill="white" transform="translate(0.384613 0.384644)"/>
</clipPath>
</defs>
</svg>
