<svg width="16" height="16" viewBox="0 0 16 16" fill="none" xmlns="http://www.w3.org/2000/svg">
<g clip-path="url(#clip0_102_154)">
<path d="M7.30212 14.4102C7.48966 14.5977 7.74176 14.7022 8.00616 14.7022C8.26748 14.7022 8.52573 14.5946 8.7102 14.4102L14.2349 8.88544C15.0742 8.04613 15.5354 6.93012 15.5385 5.74647C15.5385 4.55974 15.0773 3.44373 14.238 2.60442C13.3987 1.7651 12.2857 1.30394 11.099 1.30394C9.93382 1.30394 8.83625 1.74973 8.00308 2.56137C7.16684 1.74665 6.0662 1.29779 4.89793 1.29779C3.71428 1.29779 2.60134 1.75895 1.76202 2.59519C0.92271 3.43451 0.461548 4.55052 0.461548 5.73724C0.461548 6.92089 0.925784 8.03691 1.7651 8.87622L7.30212 14.4102ZM2.29697 3.13014C2.99179 2.43532 3.91719 2.05102 4.901 2.05102C5.88481 2.05102 6.81329 2.43532 7.51118 3.13322L7.73868 3.36072C7.8094 3.43143 7.9047 3.4714 8.00616 3.4714C8.10454 3.4714 8.20292 3.43143 8.27363 3.36072L8.49499 3.13936C9.19288 2.44147 10.1183 2.05717 11.1052 2.05717C12.089 2.05717 13.0144 2.44147 13.7092 3.13629C14.4071 3.83418 14.7883 4.75958 14.7883 5.74339C14.7883 6.7272 14.404 7.6526 13.7061 8.35049L8.17833 13.8783C8.08917 13.9674 7.92622 13.9674 7.83399 13.8783L2.30005 8.34435C1.60216 7.64645 1.21785 6.72106 1.21785 5.73724C1.21785 4.75343 1.60216 3.82803 2.29697 3.13014Z" fill="black"/>
</g>
<defs>
<clipPath id="clip0_102_154">
<rect width="15.0769" height="15.0769" fill="white" transform="translate(0.461548 0.461548)"/>
</clipPath>
</defs>
</svg>
