<svg width="16" height="16" viewBox="0 0 16 16" fill="none" xmlns="http://www.w3.org/2000/svg">
<path d="M15.4088 7.34116L13.1663 5.25883V1.84744H10.5831V2.86032L7.99987 0.461548L0.591213 7.34116C0.486851 7.43829 0.480652 7.60181 0.57778 7.70643C0.674651 7.81079 0.838168 7.81673 0.943047 7.71986L1.80042 6.92371V15.5385H5.93356H10.0667H14.1998V6.92346L15.0572 7.7196C15.1068 7.76584 15.1701 7.78857 15.2331 7.78857C15.3026 7.78857 15.3716 7.76093 15.4222 7.70617C15.5193 7.60181 15.5131 7.43829 15.4088 7.34116ZM11.0997 2.36408H12.6497V4.77913L11.0997 3.34002V2.36408ZM6.44994 15.0218V9.58081C6.44994 9.44725 6.55844 9.33876 6.69199 9.33876H9.30775C9.4413 9.33876 9.5498 9.44725 9.5498 9.58081V15.0218H6.44994ZM13.6829 15.0218H10.0664V9.58081C10.0664 9.16233 9.72623 8.82212 9.30775 8.82212H6.69199C6.27351 8.82212 5.9333 9.16233 5.9333 9.58081V15.0218H2.3168V6.44375L7.99987 1.16651L11.6887 4.59185L13.1663 5.96379L13.6829 6.44349V15.0218Z" fill="black"/>
</svg>
