<svg width="33" height="33" viewBox="0 0 33 33" fill="none" xmlns="http://www.w3.org/2000/svg">
<path d="M28.1673 4.8327C25.0508 1.71634 20.9073 0 16.5 0C12.0927 0 7.94919 1.71634 4.8327 4.8327C1.71634 7.94919 0 12.0927 0 16.5C0 20.9073 1.71634 25.0508 4.8327 28.1673C7.94919 31.2837 12.0927 33 16.5 33C20.9073 33 25.0508 31.2837 28.1673 28.1673C31.2837 25.0508 33 20.9073 33 16.5C33 12.0927 31.2837 7.94919 28.1673 4.8327ZM16.5 30.9588C8.5274 30.9588 2.04124 24.4726 2.04124 16.5C2.04124 8.5274 8.5274 2.04124 16.5 2.04124C24.4726 2.04124 30.9588 8.5274 30.9588 16.5C30.9588 24.4726 24.4726 30.9588 16.5 30.9588Z" fill="white"/>
<path d="M12.3196 22.901L23.4019 16.5L12.3196 10.099V22.901Z" fill="white"/>
</svg>
