<svg width="20" height="20" viewBox="0 0 20 20" fill="none" xmlns="http://www.w3.org/2000/svg">
<path d="M0.208252 19.8024L1.57977 14.9312C0.697804 13.4329 0.233442 11.7281 0.233442 9.97681C0.233442 4.58455 4.62036 0.197624 10.0126 0.197624C15.4049 0.197624 19.7917 4.58455 19.7917 9.97681C19.7917 15.3691 15.4049 19.756 10.0126 19.756C8.33243 19.756 6.6872 19.3259 5.23175 18.5093L0.208252 19.8024ZM5.48857 16.7301L5.7879 16.9129C7.05688 17.6876 8.51779 18.0971 10.0126 18.0971C14.4902 18.0971 18.1329 14.4544 18.1329 9.97681C18.1329 5.49926 14.4902 1.8565 10.0126 1.8565C5.53508 1.8565 1.89232 5.49926 1.89232 9.97681C1.89232 11.5369 2.33573 13.052 3.1745 14.3581L3.37609 14.672L2.58628 17.4772L5.48857 16.7301Z" fill="black"/>
<path d="M7.26551 5.42529L6.63096 5.3907C6.43165 5.37982 6.23615 5.44642 6.0855 5.57729C5.77787 5.84443 5.28598 6.36089 5.1349 7.03391C4.9096 8.0374 5.25778 9.2662 6.15892 10.495C7.06005 11.7238 8.73939 13.6899 11.709 14.5296C12.6659 14.8001 13.4186 14.6177 13.9994 14.2462C14.4594 13.952 14.7765 13.4797 14.8908 12.9458L14.9921 12.4726C15.0243 12.3221 14.9479 12.1695 14.8082 12.1051L12.6637 11.1166C12.5244 11.0525 12.3594 11.093 12.2657 11.2144L11.4238 12.3058C11.3602 12.3883 11.2513 12.4209 11.153 12.3864C10.5765 12.1838 8.6452 11.3749 7.58549 9.33366C7.53953 9.24512 7.55096 9.13766 7.61614 9.06215L8.42076 8.13134C8.50297 8.03629 8.52373 7.90266 8.47433 7.78716L7.54991 5.62442C7.5007 5.50928 7.39041 5.43211 7.26551 5.42529Z" fill="black"/>
</svg>
