<svg width="18" height="18" viewBox="0 0 18 18" fill="none" xmlns="http://www.w3.org/2000/svg">
<path d="M3.61539 3.76929C2.51081 3.76929 1.61539 4.66472 1.61539 5.76929V12.2308C1.61539 13.3354 2.51081 14.2308 3.61539 14.2308H10.0783C11.1829 14.2308 12.0783 13.3354 12.0783 12.2308V11.2589L14.8729 13.1738C15.3833 13.5236 16.0769 13.1581 16.0769 12.5393V5.46062C16.0769 4.84189 15.3835 4.47635 14.873 4.82595L12.0783 6.73987V5.76929C12.0783 4.66472 11.1829 3.76929 10.0783 3.76929H3.61539ZM12.0783 10.14V7.85864L15.1538 5.75244V12.2474L12.0783 10.14ZM11.1553 5.76929V12.2308C11.1553 12.8256 10.673 13.3077 10.0783 13.3077H3.61539C3.02062 13.3077 2.53846 12.8256 2.53846 12.2308V5.76929C2.53846 5.17452 3.02062 4.69236 3.61539 4.69236H10.0783C10.6731 4.69236 11.1553 5.17452 11.1553 5.76929Z" fill="#212121"/>
</svg>
