<svg width="20" height="20" viewBox="0 0 20 20" fill="none" xmlns="http://www.w3.org/2000/svg">
<path d="M18.8553 5.02556L18.8498 5.00344C18.4025 3.19527 16.3861 1.25501 14.5343 0.851346L14.5134 0.847045C11.5182 0.275655 8.48122 0.275655 5.48665 0.847045L5.46514 0.851346C3.61396 1.25501 1.59751 3.19527 1.14961 5.00344L1.1447 5.02556C0.591741 7.55074 0.591741 10.1115 1.1447 12.6367L1.14961 12.6588C1.5784 14.3898 3.4447 16.241 5.22737 16.7501V18.7685C5.22737 19.499 6.11763 19.8578 6.6239 19.3306L8.66892 17.2049C9.11245 17.2297 9.55623 17.2435 10 17.2435C11.5077 17.2435 13.0161 17.101 14.5134 16.8153L14.5343 16.811C16.3861 16.4073 18.4025 14.4671 18.8498 12.6589L18.8553 12.6368C19.4083 10.1115 19.4083 7.55074 18.8553 5.02556ZM17.237 12.2705C16.9384 13.4502 15.4073 14.9167 14.1908 15.1877C12.5982 15.4905 10.9931 15.62 9.38948 15.5756C9.3576 15.5747 9.32694 15.5871 9.3047 15.6099C9.07712 15.8435 7.81153 17.1427 7.81153 17.1427L6.22331 18.7727C6.10719 18.8937 5.90321 18.8114 5.90321 18.6443V15.3006C5.90321 15.2454 5.86376 15.1985 5.80951 15.1878C5.8092 15.1878 5.8089 15.1877 5.80859 15.1876C4.59208 14.9167 3.06162 13.4501 2.76241 12.2705C2.26475 9.98799 2.26475 7.67417 2.76241 5.39168C3.06162 4.21204 4.59208 2.74547 5.80859 2.47452C8.58997 1.94553 11.4101 1.94553 14.1908 2.47452C15.4079 2.74547 16.9384 4.21204 17.237 5.39168C17.7352 7.67423 17.7352 9.98805 17.237 12.2705Z" fill="black"/>
<path d="M12.6462 13.814C12.4592 13.7572 12.2809 13.719 12.1154 13.6504C10.4003 12.9388 8.82177 12.0207 7.57141 10.6134C6.86037 9.8132 6.30384 8.90972 5.8334 7.9536C5.61031 7.50017 5.42231 7.02899 5.23068 6.56088C5.05594 6.134 5.31331 5.69299 5.58432 5.37135C5.83862 5.06949 6.16585 4.83848 6.52023 4.66823C6.79684 4.53534 7.06969 4.61195 7.2717 4.84641C7.70842 5.35328 8.10956 5.88609 8.43439 6.47364C8.63413 6.83503 8.57933 7.27678 8.21732 7.52272C8.12934 7.5825 8.04916 7.65267 7.9672 7.72019C7.89532 7.77936 7.82767 7.83914 7.7784 7.91925C7.68833 8.06585 7.68403 8.23874 7.74203 8.39812C8.18845 9.62494 8.9409 10.5789 10.1757 11.0927C10.3733 11.1749 10.5718 11.2707 10.7994 11.2441C11.1806 11.1996 11.3041 10.7814 11.5712 10.5629C11.8323 10.3494 12.166 10.3466 12.4473 10.5246C12.7286 10.7027 13.0013 10.8938 13.2724 11.087C13.5385 11.2766 13.8034 11.4621 14.0489 11.6782C14.2849 11.886 14.3662 12.1587 14.2333 12.4408C13.99 12.9574 13.6359 13.3871 13.1253 13.6615C12.9811 13.7388 12.8088 13.7639 12.6462 13.814C12.8088 13.7639 12.4592 13.7571 12.6462 13.814Z" fill="black"/>
<path d="M10.0046 4.07755C12.248 4.1404 14.0907 5.62927 14.4856 7.84724C14.5528 8.22516 14.5768 8.61156 14.6067 8.99512C14.6193 9.15646 14.5279 9.30976 14.3538 9.31185C14.174 9.314 14.0931 9.16353 14.0814 9.00225C14.0583 8.68301 14.0423 8.36236 13.9983 8.04576C13.766 6.37453 12.4334 4.99189 10.7699 4.6952C10.5196 4.65054 10.2634 4.6388 10.0099 4.6122C9.84956 4.59536 9.63962 4.58565 9.6041 4.38641C9.57431 4.21935 9.71531 4.08633 9.87438 4.07779C9.91763 4.0754 9.96113 4.07736 10.0046 4.07755C9.96113 4.07736 12.248 4.1404 10.0046 4.07755Z" fill="white"/>
<path d="M13.414 8.49728C13.4103 8.5253 13.4084 8.59116 13.392 8.65321C13.3324 8.87845 12.991 8.90665 12.9123 8.67933C12.889 8.61186 12.8855 8.53513 12.8854 8.46251C12.8846 7.98733 12.7813 7.51265 12.5417 7.09922C12.2954 6.6743 11.9191 6.31709 11.4777 6.10095C11.2108 5.97026 10.9222 5.88904 10.6296 5.84063C10.5018 5.81949 10.3726 5.80665 10.2441 5.78877C10.0884 5.76714 10.0053 5.66792 10.0127 5.5145C10.0195 5.37073 10.1246 5.26733 10.2813 5.27618C10.7961 5.30542 11.2934 5.41669 11.7512 5.65907C12.682 6.152 13.2137 6.93007 13.3689 7.96902C13.3759 8.01608 13.3872 8.06272 13.3907 8.10996C13.3995 8.22664 13.4051 8.34343 13.414 8.49728C13.4051 8.34343 13.4103 8.5253 13.414 8.49728Z" fill="black"/>
<path d="M12.0186 8.44297C11.8309 8.44635 11.7305 8.34245 11.7111 8.17036C11.6977 8.05037 11.687 7.92878 11.6584 7.81204C11.602 7.58213 11.4798 7.36906 11.2864 7.22818C11.1951 7.16164 11.0916 7.11317 10.9832 7.08189C10.8455 7.04214 10.7026 7.05308 10.5652 7.01941C10.416 6.98285 10.3335 6.86206 10.357 6.7221C10.3783 6.59474 10.5022 6.49533 10.6414 6.5054C11.5112 6.56819 12.1328 7.01787 12.2216 8.04183C12.2278 8.11408 12.2352 8.19045 12.2192 8.25957C12.1917 8.3779 12.1041 8.43719 12.0186 8.44297C12.1041 8.43719 11.8309 8.44635 12.0186 8.44297Z" fill="black"/>
</svg>
