<svg width="18" height="18" viewBox="0 0 18 18" fill="none" xmlns="http://www.w3.org/2000/svg">
<path d="M16.8069 15.3816C16.7686 15.3214 16.7411 15.2539 16.7056 15.1926C16.6528 15.1003 16.5971 15.0092 16.5442 14.9169C16.4311 14.7178 16.3254 14.5159 16.2168 14.3151C15.9929 13.9033 15.7466 13.5056 15.5311 13.0877C15.3134 12.6636 15.0991 12.2372 14.8843 11.8119C14.6604 11.3704 14.4061 10.9451 14.1637 10.512C13.9145 10.0682 13.6957 9.60694 13.4594 9.15525C13.2299 8.71594 12.9993 8.2755 12.7737 7.83338C12.5409 7.37663 12.3035 6.92156 12.0661 6.46763C11.8231 6.0075 11.5728 5.55131 11.3399 5.08444C11.1116 4.62544 10.8753 4.16925 10.6424 3.7125C10.3809 3.19613 10.0996 2.6865 9.80094 2.19094C9.71544 2.0475 9.56638 1.96425 9.40944 1.95075C9.36275 1.93669 9.31494 1.92769 9.266 1.92769C9.22269 1.92769 9.17937 1.93331 9.13719 1.94456C9.00781 1.98056 8.92062 2.061 8.84581 2.16844C8.68437 2.40019 8.53025 2.63531 8.38119 2.87606C8.25912 3.07294 8.14719 3.27713 8.02062 3.47063C7.76244 3.86494 7.47106 4.23619 7.23819 4.64738C6.99519 5.07263 6.74038 5.49113 6.49119 5.913C6.24819 6.32475 6.03219 6.75113 5.79481 7.16681C5.55744 7.58531 5.30262 7.99425 5.05737 8.40825C4.81325 8.82 4.595 9.24525 4.35425 9.65981C4.118 10.0688 3.884 10.4794 3.641 10.8838C3.39406 11.2939 3.16625 11.7135 2.92662 12.1286C2.6375 12.6309 2.36187 13.1406 2.04687 13.6271C1.904 13.8493 1.75887 14.0676 1.6205 14.292C1.481 14.517 1.34037 14.7437 1.19187 14.9631C1.10075 15.0981 1.11481 15.2674 1.18512 15.408C1.17387 15.4485 1.16094 15.4884 1.16094 15.5312C1.16094 15.6521 1.20931 15.7697 1.29481 15.8552C1.38594 15.9463 1.49281 15.9773 1.61881 15.9891C2.09581 16.0318 2.57562 16.0251 3.05487 16.0341C3.54256 16.0419 4.03025 16.0363 4.5185 16.0431C4.97862 16.0487 5.43931 16.0549 5.90056 16.0583C6.37419 16.0605 6.84781 16.0813 7.32088 16.0757C7.7945 16.0689 8.26813 16.0504 8.74119 16.056C8.99262 16.0583 9.24462 16.0639 9.49494 16.0802C9.73006 16.0954 9.96406 16.1229 10.2003 16.1353C10.6582 16.1584 11.1155 16.1516 11.5745 16.1573C12.0492 16.1629 12.5217 16.1724 12.9959 16.1989C13.5472 16.2287 14.0979 16.2714 14.6502 16.2911C14.9096 16.3013 15.1689 16.3041 15.4293 16.3086C15.6667 16.3131 15.9029 16.3176 16.1392 16.2984C16.2686 16.2872 16.3811 16.2534 16.4756 16.1589C16.4941 16.1404 16.5037 16.1151 16.5183 16.0943C16.5549 16.0836 16.592 16.0779 16.6269 16.0571C16.8564 15.9244 16.9486 15.6099 16.8069 15.3816ZM14.8657 15.3428C14.4089 15.3315 13.9505 15.2921 13.4926 15.2702C13.2654 15.2584 13.0364 15.237 12.8081 15.2297C12.5808 15.2218 12.353 15.2179 12.1246 15.2111C11.6499 15.1982 11.1751 15.1937 10.6998 15.1903C10.2228 15.1869 9.74862 15.1352 9.27275 15.12C8.80475 15.1037 8.33337 15.1178 7.86537 15.1352C7.38612 15.1538 6.90856 15.1504 6.42931 15.147C5.95344 15.1425 5.47925 15.1436 5.00337 15.1526C4.44087 15.1616 3.8795 15.1723 3.31812 15.1594C2.95194 15.1509 2.58462 15.1358 2.21844 15.1144C2.3765 14.8607 2.53344 14.6059 2.69544 14.3539C2.957 13.9472 3.191 13.5276 3.41937 13.1023C3.86994 12.2664 4.35987 11.4519 4.83687 10.6313C5.08381 10.206 5.34087 9.7875 5.58275 9.35775C5.80887 8.95781 6.06087 8.5725 6.29881 8.17988C6.548 7.76925 6.77581 7.34794 7.01319 6.93056C7.25506 6.50419 7.50988 6.08456 7.76131 5.66381C7.90531 5.42306 8.04369 5.1795 8.18206 4.93538C8.32494 4.68281 8.50044 4.44881 8.66525 4.20919C8.81994 3.98419 8.96394 3.75131 9.11019 3.52013C9.16419 3.43519 9.22381 3.35363 9.27894 3.26925C9.45331 3.56569 9.63162 3.86044 9.79756 4.16138C10.0372 4.59619 10.247 5.04675 10.4613 5.49281C10.6779 5.9445 10.9203 6.38269 11.1577 6.82313C11.4007 7.27369 11.6291 7.73269 11.8721 8.18438C12.3524 9.07988 12.7979 9.99394 13.2761 10.8911C13.5056 11.322 13.7564 11.7416 13.9848 12.1731C14.2121 12.6039 14.4365 13.0365 14.657 13.4708C14.8781 13.9028 15.1295 14.3168 15.3646 14.7398C15.476 14.94 15.5801 15.1431 15.6875 15.3439C15.4136 15.3467 15.1402 15.3484 14.8657 15.3428ZM9.54444 10.4164C9.55625 10.7229 9.58044 11.0284 9.58156 11.3349C9.58269 11.592 9.36612 11.8063 9.11019 11.8063C8.84525 11.8063 8.65006 11.592 8.63881 11.3349C8.627 11.0239 8.61912 10.7134 8.61125 10.4023C8.60337 10.0862 8.59606 9.765 8.60788 9.44888C8.61969 9.13669 8.63881 8.82506 8.64725 8.51175C8.65625 8.16131 8.65512 7.81088 8.6585 7.46044C8.66187 7.22644 8.85312 7.02956 9.0905 7.02956C9.32112 7.02956 9.52531 7.22531 9.52137 7.46044C9.50844 8.12925 9.48931 8.7975 9.5135 9.46631C9.52475 9.783 9.53206 10.1003 9.54444 10.4164ZM9.545 13.3611C9.545 13.6148 9.33294 13.8268 9.07925 13.8268C8.82556 13.8268 8.6135 13.6148 8.6135 13.3611C8.6135 13.1074 8.82556 12.8953 9.07925 12.8953C9.33294 12.8953 9.545 13.1074 9.545 13.3611Z" fill="black"/>
</svg>
